<svg width="1024" height="1024" viewBox="0 0 1024 1024" fill="none" xmlns="http://www.w3.org/2000/svg">
<path d="M804 40H220C120.589 40 40 120.589 40 220V804C40 903.411 120.589 984 220 984H804C903.411 984 984 903.411 984 804V220C984 120.589 903.411 40 804 40Z" fill="white"/>
<path d="M512 115C560 295 664 399 844 447C664 495 560 599 512 779C464 599 360 495 180 447C360 399 464 295 512 115Z" fill="#2F3BFF"/>
<path d="M760 220C772 260 796 284 836 296C796 308 772 332 760 372C748 332 724 308 684 296C724 284 748 260 760 220Z" fill="#2F3BFF"/>
<path d="M240 520C248 548 264 564 292 572C264 580 248 596 240 624C232 596 216 580 188 572C216 564 232 548 240 520Z" fill="#2F3BFF"/>
<path d="M411.325 854.479C411.087 852.072 410.063 850.203 408.253 848.871C406.443 847.538 403.987 846.872 400.885 846.872C398.777 846.872 396.997 847.17 395.545 847.767C394.094 848.344 392.98 849.149 392.205 850.183C391.449 851.217 391.071 852.391 391.071 853.703C391.031 854.797 391.26 855.751 391.757 856.567C392.274 857.382 392.98 858.088 393.875 858.685C394.77 859.261 395.804 859.768 396.977 860.206C398.151 860.624 399.403 860.982 400.736 861.28L406.224 862.592C408.889 863.189 411.335 863.984 413.562 864.979C415.79 865.973 417.719 867.196 419.349 868.648C420.98 870.099 422.243 871.81 423.138 873.778C424.053 875.747 424.52 878.004 424.54 880.55C424.52 884.288 423.565 887.53 421.676 890.274C419.807 892.999 417.102 895.116 413.562 896.628C410.043 898.119 405.797 898.865 400.825 898.865C395.893 898.865 391.598 898.109 387.939 896.598C384.3 895.087 381.456 892.849 379.408 889.886C377.379 886.903 376.315 883.214 376.216 878.82H388.714C388.854 880.868 389.44 882.578 390.474 883.95C391.528 885.303 392.93 886.327 394.68 887.023C396.45 887.699 398.449 888.037 400.676 888.037C402.864 888.037 404.763 887.719 406.374 887.082C408.004 886.446 409.267 885.561 410.162 884.428C411.057 883.294 411.504 881.991 411.504 880.52C411.504 879.148 411.097 877.994 410.281 877.06C409.486 876.125 408.313 875.33 406.761 874.673C405.23 874.017 403.351 873.42 401.124 872.884L394.472 871.213C389.321 869.96 385.254 868.001 382.271 865.337C379.288 862.672 377.807 859.082 377.827 854.568C377.807 850.869 378.791 847.638 380.78 844.874C382.788 842.109 385.543 839.952 389.043 838.401C392.543 836.849 396.52 836.074 400.974 836.074C405.509 836.074 409.466 836.849 412.847 838.401C416.247 839.952 418.892 842.109 420.781 844.874C422.67 847.638 423.645 850.839 423.705 854.479H411.325ZM433.228 898V836.909H457.33C461.963 836.909 465.911 837.794 469.172 839.564C472.434 841.314 474.919 843.75 476.63 846.872C478.36 849.974 479.225 853.554 479.225 857.611C479.225 861.668 478.35 865.247 476.6 868.349C474.85 871.452 472.314 873.868 468.993 875.598C465.692 877.328 461.695 878.193 457.002 878.193H441.64V867.842H454.914C457.4 867.842 459.448 867.415 461.059 866.56C462.689 865.685 463.902 864.482 464.698 862.95C465.513 861.399 465.921 859.619 465.921 857.611C465.921 855.582 465.513 853.812 464.698 852.301C463.902 850.77 462.689 849.587 461.059 848.751C459.428 847.896 457.36 847.469 454.854 847.469H446.144V898H433.228ZM491.089 898H477.249L498.338 836.909H514.983L536.043 898H522.202L506.899 850.869H506.422L491.089 898ZM490.224 873.987H522.918V884.07H490.224V873.987ZM543.396 898V836.909H567.498C572.112 836.909 576.049 837.734 579.31 839.385C582.592 841.016 585.087 843.332 586.798 846.335C588.528 849.318 589.393 852.828 589.393 856.865C589.393 860.922 588.518 864.412 586.768 867.335C585.018 870.239 582.482 872.466 579.161 874.017C575.86 875.568 571.863 876.344 567.17 876.344H551.032V865.963H565.082C567.548 865.963 569.596 865.625 571.227 864.949C572.857 864.273 574.07 863.259 574.866 861.906C575.681 860.554 576.089 858.874 576.089 856.865C576.089 854.837 575.681 853.126 574.866 851.734C574.07 850.342 572.847 849.288 571.197 848.572C569.566 847.837 567.508 847.469 565.022 847.469H556.312V898H543.396ZM576.387 870.199L591.57 898H577.312L562.457 870.199H576.387ZM598.521 898V836.909H611.437V863.845H612.242L634.227 836.909H649.708L627.038 864.263L649.977 898H634.525L617.79 872.884L611.437 880.639V898H598.521Z" fill="#111111"/>
</svg>
